<svg width="183" height="37" viewBox="0 0 183 37" fill="none" xmlns="http://www.w3.org/2000/svg">
<path d="M12.0957 12.9531H23.1875V26.8047C20.1758 27.8359 16.8652 28.3516 13.2559 28.3516C9.29492 28.3516 6.23047 27.2031 4.0625 24.9062C1.90625 22.6094 0.828125 19.334 0.828125 15.0801C0.828125 10.9316 2.01172 7.70312 4.37891 5.39453C6.74609 3.08594 10.0625 1.93164 14.3281 1.93164C15.9453 1.93164 17.4688 2.08398 18.8984 2.38867C20.3398 2.69336 21.5938 3.08008 22.6602 3.54883L20.4629 8.99805C18.6113 8.08398 16.5781 7.62695 14.3633 7.62695C12.3359 7.62695 10.7656 8.28906 9.65234 9.61328C8.55078 10.9258 8 12.8066 8 15.2559C8 17.6582 8.49805 19.4922 9.49414 20.7578C10.502 22.0117 11.9492 22.6387 13.8359 22.6387C14.8672 22.6387 15.8164 22.5391 16.6836 22.3398V18.3145H12.0957V12.9531ZM37.6367 28.3516C34.3203 28.3516 31.7422 27.4727 29.9023 25.7148C28.0742 23.9453 27.1602 21.4316 27.1602 18.1738C27.1602 14.8105 28.0098 12.2324 29.709 10.4395C31.4082 8.63477 33.834 7.73242 36.9863 7.73242C39.9863 7.73242 42.3008 8.51758 43.9297 10.0879C45.5703 11.6465 46.3906 13.8965 46.3906 16.8379V19.8965H34.1035C34.1504 21.0098 34.5547 21.8828 35.3164 22.5156C36.0898 23.1484 37.1387 23.4648 38.4629 23.4648C39.6699 23.4648 40.7773 23.3535 41.7852 23.1309C42.8047 22.8965 43.9062 22.5039 45.0898 21.9531V26.8926C44.0117 27.4434 42.8984 27.8242 41.75 28.0352C40.6016 28.2461 39.2305 28.3516 37.6367 28.3516ZM37.2324 12.4082C36.4238 12.4082 35.7441 12.666 35.1934 13.1816C34.6543 13.6855 34.3379 14.4824 34.2441 15.5723H40.1504C40.127 14.6113 39.8516 13.8438 39.3242 13.2695C38.8086 12.6953 38.1113 12.4082 37.2324 12.4082ZM69.2949 17.998C69.2949 21.2559 68.416 23.7988 66.6582 25.627C64.9121 27.4434 62.4629 28.3516 59.3105 28.3516C56.2871 28.3516 53.8789 27.4199 52.0859 25.5566C50.3047 23.6934 49.4141 21.1738 49.4141 17.998C49.4141 14.752 50.2871 12.2324 52.0332 10.4395C53.791 8.63477 56.252 7.73242 59.416 7.73242C61.373 7.73242 63.1016 8.14844 64.6016 8.98047C66.1016 9.8125 67.2559 11.0078 68.0645 12.5664C68.8848 14.1133 69.2949 15.9238 69.2949 17.998ZM56.3926 17.998C56.3926 19.709 56.6211 21.0156 57.0781 21.918C57.5352 22.8086 58.3027 23.2539 59.3809 23.2539C60.4473 23.2539 61.1973 22.8086 61.6309 21.918C62.0762 21.0156 62.2988 19.709 62.2988 17.998C62.2988 16.2988 62.0762 15.0156 61.6309 14.1484C61.1855 13.2812 60.4238 12.8477 59.3457 12.8477C58.291 12.8477 57.5352 13.2812 57.0781 14.1484C56.6211 15.0039 56.3926 16.2871 56.3926 17.998ZM85.1855 28.3516C84.1777 28.3516 83.2754 28.1875 82.4785 27.8594C81.6816 27.5195 80.8906 26.916 80.1055 26.0488H79.7891C80 27.4434 80.1055 28.3105 80.1055 28.6504V36.6484H73.2324V8.08398H78.8223L79.7891 10.6152H80.1055C81.3828 8.69336 83.1465 7.73242 85.3965 7.73242C87.5996 7.73242 89.3281 8.64648 90.582 10.4746C91.8359 12.3027 92.4629 14.8105 92.4629 17.998C92.4629 21.209 91.8066 23.7402 90.4941 25.5918C89.1934 27.4316 87.4238 28.3516 85.1855 28.3516ZM82.8828 13.1289C81.875 13.1289 81.166 13.4922 80.7559 14.2188C80.3574 14.9336 80.1406 16 80.1055 17.418V17.9629C80.1055 19.6738 80.334 20.9102 80.791 21.6719C81.248 22.4336 81.9688 22.8145 82.9531 22.8145C83.832 22.8145 84.4707 22.4395 84.8691 21.6895C85.2676 20.9277 85.4668 19.6738 85.4668 17.9277C85.4668 16.2168 85.2676 14.9922 84.8691 14.2539C84.4707 13.5039 83.8086 13.1289 82.8828 13.1289ZM115.42 17.998C115.42 21.2559 114.541 23.7988 112.783 25.627C111.037 27.4434 108.588 28.3516 105.436 28.3516C102.412 28.3516 100.004 27.4199 98.2109 25.5566C96.4297 23.6934 95.5391 21.1738 95.5391 17.998C95.5391 14.752 96.4121 12.2324 98.1582 10.4395C99.916 8.63477 102.377 7.73242 105.541 7.73242C107.498 7.73242 109.227 8.14844 110.727 8.98047C112.227 9.8125 113.381 11.0078 114.189 12.5664C115.01 14.1133 115.42 15.9238 115.42 17.998ZM102.518 17.998C102.518 19.709 102.746 21.0156 103.203 21.918C103.66 22.8086 104.428 23.2539 105.506 23.2539C106.572 23.2539 107.322 22.8086 107.756 21.918C108.201 21.0156 108.424 19.709 108.424 17.998C108.424 16.2988 108.201 15.0156 107.756 14.1484C107.311 13.2812 106.549 12.8477 105.471 12.8477C104.416 12.8477 103.66 13.2812 103.203 14.1484C102.746 15.0039 102.518 16.2871 102.518 17.998ZM131.381 7.73242C131.979 7.73242 132.547 7.7793 133.086 7.87305L133.473 7.94336L132.857 14.4297C132.295 14.2891 131.516 14.2188 130.52 14.2188C129.02 14.2188 127.93 14.5645 127.25 15.2559C126.57 15.9355 126.23 16.9199 126.23 18.209V28H119.357V8.08398H124.473L125.545 11.2656H125.879C126.453 10.2109 127.25 9.36133 128.27 8.7168C129.301 8.06055 130.338 7.73242 131.381 7.73242ZM146.023 22.9199C146.949 22.9199 148.057 22.6914 149.346 22.2344V27.2441C148.42 27.6426 147.535 27.9238 146.691 28.0879C145.859 28.2637 144.881 28.3516 143.756 28.3516C141.447 28.3516 139.783 27.7891 138.764 26.6641C137.744 25.5273 137.234 23.7871 137.234 21.4434V13.2344H134.826V10.4395L137.885 8.27734L139.66 4.09375H144.16V8.08398H149.047V13.2344H144.16V20.9863C144.16 22.2754 144.781 22.9199 146.023 22.9199ZM165.816 28L164.498 25.3633H164.357C163.432 26.5117 162.488 27.2969 161.527 27.7188C160.566 28.1406 159.324 28.3516 157.801 28.3516C155.926 28.3516 154.449 27.7891 153.371 26.6641C152.293 25.5391 151.754 23.957 151.754 21.918C151.754 19.7969 152.492 18.2207 153.969 17.1895C155.445 16.1465 157.584 15.5605 160.385 15.4316L163.707 15.3262V15.0449C163.707 13.4043 162.898 12.584 161.281 12.584C159.828 12.584 157.982 13.0762 155.744 14.0605L153.758 9.52539C156.078 8.33008 159.008 7.73242 162.547 7.73242C165.102 7.73242 167.076 8.36523 168.471 9.63086C169.877 10.8965 170.58 12.666 170.58 14.9395V28H165.816ZM160.719 23.5C161.551 23.5 162.26 23.2363 162.846 22.709C163.443 22.1816 163.742 21.4961 163.742 20.6523V19.1055L162.16 19.1758C159.898 19.2578 158.768 20.0898 158.768 21.6719C158.768 22.8906 159.418 23.5 160.719 23.5ZM182.129 28H175.256V0.648438H182.129V28Z" fill="white"/>
</svg>
